<?xml version="1.0" encoding="iso-8859-1"?>
<!-- Generator: Adobe Illustrator 19.0.0, SVG Export Plug-In . SVG Version: 6.00 Build 0)  -->
<svg version="1.1" id="Layer_1" xmlns="http://www.w3.org/2000/svg" xmlns:xlink="http://www.w3.org/1999/xlink" x="0px" y="0px"
	 viewBox="0 0 496.721 496.721" style="enable-background:new 0 0 496.721 496.721;" xml:space="preserve">
<g>
	<rect x="344.361" y="406.721" style="fill:#A78966;" width="40" height="40"/>
	<polygon style="fill:#B39A7C;" points="218.361,406.721 198.361,406.721 178.361,406.721 178.361,446.721 218.361,446.721 	"/>
	<polygon style="fill:#00665A;" points="496.721,406.721 364.361,142 314.361,242 396.722,406.721 	"/>
	<polygon style="fill:#91DC5A;" points="198.361,10 0,406.721 178.361,406.721 198.361,406.721 	"/>
	<polygon style="fill:#6DC82A;" points="198.361,406.721 218.361,406.721 344.361,406.721 384.361,406.721 396.722,406.721 
		314.361,242 198.361,10 	"/>
	<polygon style="fill:#00665A;" points="344.361,446.721 218.361,446.721 178.361,446.721 0.678,446.721 0.678,486.721 
		495.678,486.721 495.678,446.721 384.361,446.721 	"/>
</g>
<g>
</g>
<g>
</g>
<g>
</g>
<g>
</g>
<g>
</g>
<g>
</g>
<g>
</g>
<g>
</g>
<g>
</g>
<g>
</g>
<g>
</g>
<g>
</g>
<g>
</g>
<g>
</g>
<g>
</g>
</svg>
